<?xml version="1.0" standalone="no"?>
<!DOCTYPE svg PUBLIC "-//W3C//DTD SVG 20010904//EN"
 "http://www.w3.org/TR/2001/REC-SVG-20010904/DTD/svg10.dtd">
<svg version="1.0" xmlns="http://www.w3.org/2000/svg"
 width="1254.000000pt" height="1254.000000pt" viewBox="0 0 1254.000000 1254.000000"
 preserveAspectRatio="xMidYMid meet">

<g transform="translate(0.000000,1254.000000) scale(0.100000,-0.100000)"
fill="#000000" stroke="none">
<path d="M5584 10037 c-301 -525 -805 -1395 -1024 -1767 -89 -151 -354 -608
-450 -775 -124 -216 -577 -992 -738 -1265 -230 -391 -812 -1380 -934 -1590
-69 -118 -288 -494 -486 -834 -199 -341 -362 -624 -362 -628 0 -5 260 -7 577
-6 l577 3 248 420 c137 231 304 515 372 630 67 116 190 325 273 465 83 140
273 464 423 720 150 256 386 659 525 895 283 482 486 829 833 1427 131 224
242 406 247 404 6 -1 35 -47 66 -102 269 -473 827 -1457 843 -1486 l21 -38
578 0 c317 0 577 3 577 7 0 5 -51 97 -166 300 -13 23 -24 44 -24 47 0 3 273 6
608 6 l607 1 330 351 c182 193 381 404 444 469 l113 119 691 -2 692 -3 26 -50
c37 -69 91 -122 157 -153 49 -23 70 -27 152 -27 84 0 101 3 148 28 70 37 128
97 161 166 22 48 26 69 26 146 0 78 -4 98 -28 147 -60 122 -159 189 -292 196
-66 3 -91 0 -140 -19 -74 -27 -152 -99 -185 -169 l-23 -50 -737 0 -737 0 -105
-107 c-90 -93 -513 -538 -722 -760 l-68 -73 -618 0 c-575 0 -618 1 -632 18 -8
9 -37 58 -65 107 -28 50 -153 270 -278 490 -125 220 -256 450 -290 510 -380
670 -1116 1959 -1124 1967 -3 4 -43 -57 -87 -135z m5862 -1973 c72 -34 113
-116 93 -187 -39 -142 -215 -173 -303 -54 -31 42 -30 140 3 186 45 62 139 87
207 55z"/>
<path d="M10760 6727 c-26 -7 -62 -23 -83 -35 -50 -31 -123 -115 -137 -157
l-12 -35 -483 0 -484 0 -303 -315 -303 -315 -420 0 -420 1 -110 197 -110 197
-1285 0 -1284 0 -262 -437 -261 -438 1788 0 1789 0 -29 58 c-16 32 -46 85 -65
118 -20 32 -36 65 -36 72 0 9 86 12 398 12 l397 0 300 315 300 314 440 0 440
1 19 -45 c22 -56 90 -126 149 -154 215 -104 451 17 499 255 21 104 -24 238
-105 311 -85 77 -222 110 -327 80z m155 -186 c92 -41 126 -132 84 -218 -31
-63 -77 -93 -141 -93 -100 0 -168 62 -168 153 0 83 44 145 118 167 42 13 64
11 107 -9z"/>
<path d="M10283 5246 c-100 -32 -162 -86 -209 -177 l-24 -49 -733 0 -732 0
-33 60 -33 60 -595 0 c-327 0 -594 -3 -594 -6 0 -4 22 -45 49 -93 394 -694
546 -962 783 -1378 l281 -493 588 0 c324 0 589 3 589 7 0 10 -61 119 -285 513
-251 441 -494 872 -568 1008 l-55 102 669 0 668 0 22 -50 c29 -66 111 -142
187 -170 87 -33 195 -25 281 20 75 40 129 103 161 187 31 82 25 195 -14 273
-59 118 -166 191 -291 197 -42 2 -87 -3 -112 -11z m187 -206 c36 -26 69 -90
70 -134 0 -44 -37 -113 -74 -135 -53 -33 -104 -36 -156 -9 -60 31 -90 77 -90
140 0 72 38 131 100 157 39 17 113 7 150 -19z"/>
<path d="M4463 4888 c-6 -7 -26 -40 -45 -73 -19 -33 -144 -244 -278 -470 -572
-963 -690 -1164 -690 -1169 0 -3 252 -6 560 -6 l559 0 40 68 c21 37 105 182
186 322 81 140 174 301 207 358 l60 102 808 0 808 0 59 108 c33 59 122 220
198 357 76 138 157 285 180 327 24 42 40 79 37 82 -3 3 -607 6 -1342 6 -1058
0 -1340 -3 -1347 -12z"/>
</g>
</svg>
